<svg width="135" height="103" xmlns="http://www.w3.org/2000/svg">
 <!-- Created with Method Draw - http://github.com/duopixel/Method-Draw/ -->
 <g>
  <title>background</title>
  <rect fill="#fff" id="canvas_background" height="105" width="137" y="-1" x="-1"/>
  <g display="none" overflow="visible" y="0" x="0" height="100%" width="100%" id="canvasGrid">
   <rect fill="url(#gridpattern)" stroke-width="0" y="0" x="0" height="100%" width="100%"/>
  </g>
 </g>
 <g>
  <title>Layer 1</title>
  <g stroke="null" id="svg_6">
   <path stroke="#000" id="svg_5" d="m67.569664,37.432639c-10.013073,0 -18.126634,6.190346 -18.126634,13.82995c0,7.63606 8.113561,13.82995 18.126634,13.82995c2.294275,0 4.4678,-0.361428 6.488062,-0.956722l3.88262,4.553289l6.31158,-3.135923l-3.859399,-4.521398c3.274219,-2.501651 5.30377,-5.956481 5.30377,-9.769196c0,-7.639603 -8.113561,-13.82995 -18.126634,-13.82995zm-0.069664,-37.432639c-37.279654,0 -67.499999,23.057003 -67.499999,51.499998c0,28.442994 30.220345,51.499998 67.499999,51.499998c37.279654,0 67.499999,-23.057003 67.499999,-51.499998c0,-28.442994 -30.220345,-51.499998 -67.499999,-51.499998zm47.250928,68.540282c-1.119272,1.785881 -2.382517,3.507981 -3.836177,5.137952l-14.666644,-2.405979c-2.2339,1.863836 -4.778967,3.522155 -7.588757,4.90763l0.55267,11.346016c-2.354651,0.814986 -4.774322,1.491778 -7.286879,2.019747l-9.079572,-8.908146c-1.727673,0.180714 -3.483212,0.304734 -5.275905,0.304734c-1.653365,0 -3.278863,-0.102759 -4.881141,-0.262213l-9.033129,8.858538c-2.512557,-0.535056 -4.946161,-1.211848 -7.291523,-2.016203l0.543381,-11.147584c-2.944475,-1.410279 -5.610293,-3.118205 -7.951011,-5.056454l-14.276524,2.331567c-1.45366,-1.615797 -2.707617,-3.344984 -3.836177,-5.130865l9.697261,-8.181746c-1.049608,-2.491021 -1.644076,-5.141496 -1.788049,-7.877012l-12.855373,-5.18756c0.255436,-1.994943 0.766307,-3.922561 1.397929,-5.821831l14.322967,-1.513038c1.346842,-2.487478 3.134891,-4.790697 5.27126,-6.881312l-5.489542,-10.279448c1.853069,-1.378389 3.854754,-2.636301 5.958614,-3.791454l12.367724,5.92459c3.018784,-1.194131 6.265137,-2.101245 9.683329,-2.657561l4.495665,-10.633789c1.29111,-0.074412 2.577577,-0.148823 3.887264,-0.148823c1.309688,0 2.600798,0.077955 3.887264,0.148823l4.53282,10.729461c3.343883,0.577577 6.50664,1.474061 9.455759,2.657561l12.558139,-6.013176c2.113148,1.155153 4.119478,2.413066 5.967903,3.791454l-5.647447,10.580638c1.987753,1.998486 3.682916,4.184773 4.960094,6.537601l14.792039,1.562646c0.626978,1.895727 1.147138,3.830432 1.402573,5.821831l-13.315157,5.371818c-0.157906,2.572519 -0.696642,5.067084 -1.64872,7.441172l10.013073,8.440415z" stroke-width="1.5" fill="#005fbf"/>
   <text transform="matrix(0.6958763003349304,0,0,0.6477987170219421,0.5777777039535152,0.927207557054686) " stroke="#000" xml:space="preserve" text-anchor="start" font-family="Helvetica, Arial, sans-serif" font-size="24" id="svg_1" y="85.373573" x="78.769901" stroke-width="0" fill="#ffffff">Jef</text>
  </g>
 </g>
</svg>